<svg xmlns="http://www.w3.org/2000/svg" xmlns:xlink="http://www.w3.org/1999/xlink" width="364" height="364" viewBox="0 0 364 364">
  <defs>
    <radialGradient id="radial-gradient" cx="0.5" cy="0.5" r="0.5" gradientUnits="objectBoundingBox">
      <stop offset="0" stop-color="#ab2a2a"/>
      <stop offset="1" stop-color="#e20e0e"/>
    </radialGradient>
  </defs>
  <g id="six" transform="translate(-693 -653)">
    <g id="three" transform="translate(-635 29)">
      <g id="Trazado_1" data-name="Trazado 1" transform="translate(1328 624)" fill="#fff">
        <path d="M 182 363.5 C 169.6851348876953 363.5 157.3781433105469 362.2593688964844 145.4209136962891 359.8125305175781 C 133.7677764892578 357.4280090332031 122.3054122924805 353.869873046875 111.352180480957 349.237060546875 C 100.5976333618164 344.6882629394531 90.22486114501953 339.05810546875 80.52195739746094 332.5029602050781 C 70.9111328125 326.010009765625 61.87350082397461 318.5532836914063 53.66013717651367 310.3398742675781 C 45.44672775268555 302.1264953613281 37.9900016784668 293.0888671875 31.49704551696777 283.4780578613281 C 24.94190979003906 273.775146484375 19.31172752380371 263.4023742675781 14.76295471191406 252.6478118896484 C 10.13013648986816 241.6945953369141 6.572000026702881 230.2322235107422 4.187454700469971 218.5790863037109 C 1.740636348724365 206.6218566894531 0.5 194.3148651123047 0.5 182 C 0.5 169.6851348876953 1.740636348724365 157.3781433105469 4.187454700469971 145.4209136962891 C 6.572000026702881 133.7677764892578 10.13013648986816 122.3054122924805 14.76295471191406 111.352180480957 C 19.31172752380371 100.5976333618164 24.94190979003906 90.22486114501953 31.49704551696777 80.52195739746094 C 37.9900016784668 70.9111328125 45.44672775268555 61.87350082397461 53.66013717651367 53.66013717651367 C 61.87350082397461 45.44672775268555 70.9111328125 37.9900016784668 80.52195739746094 31.49704551696777 C 90.22486114501953 24.94190979003906 100.5976333618164 19.31172752380371 111.352180480957 14.76295471191406 C 122.3054122924805 10.13013648986816 133.7677764892578 6.572000026702881 145.4209136962891 4.187454700469971 C 157.3781433105469 1.740636348724365 169.6851348876953 0.5 182 0.5 C 194.3148651123047 0.5 206.6218566894531 1.740636348724365 218.5790863037109 4.187454700469971 C 230.2322235107422 6.572000026702881 241.6945953369141 10.13013648986816 252.6478118896484 14.76295471191406 C 263.4023742675781 19.31172752380371 273.775146484375 24.94190979003906 283.4780578613281 31.49704551696777 C 293.0888671875 37.9900016784668 302.1264953613281 45.44672775268555 310.3398742675781 53.66013717651367 C 318.5532836914063 61.87350082397461 326.010009765625 70.9111328125 332.5029602050781 80.52195739746094 C 339.05810546875 90.22486114501953 344.6882629394531 100.5976333618164 349.237060546875 111.352180480957 C 353.869873046875 122.3054122924805 357.4280090332031 133.7677764892578 359.8125305175781 145.4209136962891 C 362.2593688964844 157.3781433105469 363.5 169.6851348876953 363.5 182 C 363.5 194.3148651123047 362.2593688964844 206.6218566894531 359.8125305175781 218.5790863037109 C 357.4280090332031 230.2322235107422 353.869873046875 241.6945953369141 349.237060546875 252.6478118896484 C 344.6882629394531 263.4023742675781 339.05810546875 273.775146484375 332.5029602050781 283.4780578613281 C 326.010009765625 293.0888671875 318.5532836914063 302.1264953613281 310.3398742675781 310.3398742675781 C 302.1264953613281 318.5532836914063 293.0888671875 326.010009765625 283.4780578613281 332.5029602050781 C 273.775146484375 339.05810546875 263.4023742675781 344.6882629394531 252.6478118896484 349.237060546875 C 241.6945953369141 353.869873046875 230.2322235107422 357.4280090332031 218.5790863037109 359.8125305175781 C 206.6218566894531 362.2593688964844 194.3148651123047 363.5 182 363.5 Z" stroke="none"/>
        <path d="M 182 1 C 169.7187347412109 1 157.4454498291016 2.237213134765625 145.5211334228516 4.677276611328125 C 133.9003601074219 7.05523681640625 122.4697723388672 10.60348510742188 111.5469512939453 15.22344970703125 C 100.8221740722656 19.75967407226563 90.47805786132813 25.374267578125 80.80184936523438 31.911376953125 C 71.2174072265625 38.38650512695313 62.20455932617188 45.82281494140625 54.013671875 54.013671875 C 45.82281494140625 62.20455932617188 38.38650512695313 71.2174072265625 31.911376953125 80.80184936523438 C 25.374267578125 90.47805786132813 19.75967407226563 100.8221740722656 15.22344970703125 111.5469512939453 C 10.60348510742188 122.4697723388672 7.05523681640625 133.9003601074219 4.677276611328125 145.5211334228516 C 2.237213134765625 157.4454498291016 1 169.7187347412109 1 182 C 1 194.2812652587891 2.237213134765625 206.5545501708984 4.677276611328125 218.4788665771484 C 7.05523681640625 230.0996398925781 10.60348510742188 241.5302276611328 15.22344970703125 252.4530487060547 C 19.75967407226563 263.1778259277344 25.374267578125 273.52197265625 31.911376953125 283.1981201171875 C 38.38650512695313 292.7825927734375 45.82281494140625 301.7954711914063 54.013671875 309.986328125 C 62.20455932617188 318.1771850585938 71.2174072265625 325.6134948730469 80.80184936523438 332.088623046875 C 90.47805786132813 338.625732421875 100.8221740722656 344.2403259277344 111.5469512939453 348.7765502929688 C 122.4697723388672 353.396484375 133.9003601074219 356.9447631835938 145.5211334228516 359.3227233886719 C 157.4454498291016 361.7627868652344 169.7187347412109 363 182 363 C 194.2812652587891 363 206.5545501708984 361.7627868652344 218.4788665771484 359.3227233886719 C 230.0996398925781 356.9447631835938 241.5302276611328 353.396484375 252.4530487060547 348.7765502929688 C 263.1778259277344 344.2403259277344 273.52197265625 338.625732421875 283.1981201171875 332.088623046875 C 292.7825927734375 325.6134948730469 301.7954711914063 318.1771850585938 309.986328125 309.986328125 C 318.1771850585938 301.7954711914063 325.6134948730469 292.7825927734375 332.088623046875 283.1981201171875 C 338.625732421875 273.52197265625 344.2403259277344 263.1778259277344 348.7765502929688 252.4530487060547 C 353.396484375 241.5302276611328 356.9447631835938 230.0996398925781 359.3227233886719 218.4788665771484 C 361.7627868652344 206.5545501708984 363 194.2812652587891 363 182 C 363 169.7187347412109 361.7627868652344 157.4454498291016 359.3227233886719 145.5211334228516 C 356.9447631835938 133.9003601074219 353.396484375 122.4697723388672 348.7765502929688 111.5469512939453 C 344.2403259277344 100.8221740722656 338.625732421875 90.47805786132813 332.088623046875 80.80184936523438 C 325.6134948730469 71.2174072265625 318.1771850585938 62.20455932617188 309.986328125 54.013671875 C 301.7954711914063 45.82281494140625 292.7825927734375 38.38650512695313 283.1981201171875 31.911376953125 C 273.52197265625 25.374267578125 263.1778259277344 19.75967407226563 252.4530487060547 15.22344970703125 C 241.5302276611328 10.60348510742188 230.0996398925781 7.05523681640625 218.4788665771484 4.677276611328125 C 206.5545501708984 2.237213134765625 194.2812652587891 1 182 1 M 182 0 C 282.5158081054688 0 364 81.48419189453125 364 182 C 364 282.5158081054688 282.5158081054688 364 182 364 C 81.48419189453125 364 0 282.5158081054688 0 182 C 0 81.48419189453125 81.48419189453125 0 182 0 Z" stroke="none" fill="#fff"/>
      </g>
    </g>
    <g id="Grupo_9" data-name="Grupo 9">
      <g id="Grupo_7" data-name="Grupo 7" transform="translate(1681 -675) rotate(90)">
        <circle id="Elipse_6" data-name="Elipse 6" cx="14" cy="14" r="14" transform="translate(1464.05 732) rotate(90)" fill="url(#radial-gradient)"/>
        <circle id="Elipse_10" data-name="Elipse 10" cx="14" cy="14" r="14" transform="translate(1583.95 732) rotate(90)" fill="url(#radial-gradient)"/>
        <circle id="Elipse_6-2" data-name="Elipse 6" cx="14" cy="14" r="14" transform="translate(1464.05 852) rotate(90)" fill="url(#radial-gradient)"/>
        <circle id="Elipse_10-2" data-name="Elipse 10" cx="14" cy="14" r="14" transform="translate(1583.95 852) rotate(90)" fill="url(#radial-gradient)"/>
        <circle id="Elipse_9" data-name="Elipse 9" cx="14" cy="14" r="14" transform="translate(1496 732)" fill="url(#radial-gradient)"/>
        <circle id="Elipse_12" data-name="Elipse 12" cx="14" cy="14" r="14" transform="translate(1496 852)" fill="url(#radial-gradient)"/>
      </g>
    </g>
  </g>
</svg>
